# xmcd
#
# Track frame offsets:
#	300
#	17326
#	34230
#	49189
#	65901
#	80605
#	99603
#	117403
#	132515
#	147635
#	167091
#	180924
#	201851
#	219831
#	237796
#	255562
#	278405
#	293821
#	312274
#	333640
#
# Disc length: 4668 seconds
#
# Revision: 1
# Processed by: cddbd v1.5.2PL0 Copyright (c) Steve Scherf et al.
# Submitted via: audiograbber 1.83.01
#
DISCID=2b123814
DTITLE=Various Artist - SWEET HOME ALABAMA VOL. 5 - DISC 2
DYEAR=1900
DGENRE=
TTITLE0=Mark Selby - She's Like Mercury
TTITLE1=Collin Raye - Too Hot To Sleep
TTITLE2=Zona Jones - Could Not Stop Myself From Loving You
TTITLE3=Michael Holloway - Red Thunderbird
TTITLE4=Steff Nevers - Baby's Got Her Boots On
TTITLE5=The Returners - Come Together
TTITLE6=Steve Fister - Coulda Woulda Shoulda
TTITLE7=Conferderate Railroad - Elvis And Andy (Live)
TTITLE8=Big Bull Band - T For Texas
TTITLE9=Dr. Will - Good Times Revisited
TTITLE10=Laura Bryna - Same Dog
TTITLE11=Henrik Freischlader Band - Someone Like Me
TTITLE12=Jackson Mackay - Honky Tonk Boy
TTITLE13=Willie Logan - Tumbleweed
TTITLE14=Get the cat - Two Steps Forward
TTITLE15=C.C.B. - Smooth And Easy
TTITLE16=Cody McCarver - Red Flag
TTITLE17=Coal - Keep Movin' On
TTITLE18=Charlie A´Court - Big Dark Canyon
TTITLE19=Shannah - Adios Saynora Goodbye
EXTD=
EXTT0=
EXTT1=
EXTT2=
EXTT3=
EXTT4=
EXTT5=
EXTT6=
EXTT7=
EXTT8=
EXTT9=
EXTT10=
EXTT11=
EXTT12=
EXTT13=
EXTT14=
EXTT15=
EXTT16=
EXTT17=
EXTT18=
EXTT19=
PLAYORDER=
